<svg width="150" height="150" viewBox="0 0 150 150" fill="none" xmlns="http://www.w3.org/2000/svg">
<path d="M120 76.1C120 73 119.7 69.8 119.2 66.8H75.8999V84.5H100.7C99.6999 90.2 96.3999 95.2 91.4999 98.4L106.3 109.9C115 101.8 120 90 120 76.1Z" fill="#D1BDEE"/>
<path d="M75.8999 120.9C88.2999 120.9 98.6999 116.8 106.3 109.8L91.4999 98.4C87.3999 101.2 82.0999 102.8 75.8999 102.8C63.8999 102.8 53.7999 94.7 50.0999 83.9L34.8999 95.6C42.6999 111.1 58.4999 120.9 75.8999 120.9Z" fill="#AF8BDF"/>
<path d="M50.0999 83.8C48.1999 78.1 48.1999 71.9 50.0999 66.2L34.8999 54.4C28.3999 67.4 28.3999 82.7 34.8999 95.6L50.0999 83.8Z" fill="#8D59D1"/>
<path d="M75.8999 47.3C82.3999 47.2 88.7999 49.7 93.4999 54.2L106.6 41C98.2999 33.2 87.2999 29 75.8999 29.1C58.4999 29.1 42.6999 38.9 34.8999 54.4L50.0999 66.2C53.7999 55.3 63.8999 47.3 75.8999 47.3Z" fill="#623E92"/>
</svg>
